<mxfile host="app.diagrams.net" modified="2023-11-26T05:07:35.764Z" agent="Mozilla/5.0 (Windows NT 10.0; Win64; x64) AppleWebKit/537.36 (KHTML, like Gecko) Chrome/119.0.0.0 Safari/537.36" etag="7RDm5ukEadfbJAp0qyaO" version="22.1.4" type="device">
  <diagram id="C5RBs43oDa-KdzZeNtuy" name="Page-1">
    <mxGraphModel dx="1050" dy="585" grid="1" gridSize="10" guides="1" tooltips="1" connect="1" arrows="1" fold="1" page="1" pageScale="1" pageWidth="827" pageHeight="1169" math="0" shadow="0">
      <root>
        <mxCell id="WIyWlLk6GJQsqaUBKTNV-0" />
        <mxCell id="WIyWlLk6GJQsqaUBKTNV-1" parent="WIyWlLk6GJQsqaUBKTNV-0" />
        <mxCell id="cl-cgMlKk-zf_8zUZ1PS-0" value="Pré-processamento" style="swimlane;whiteSpace=wrap;html=1;" parent="WIyWlLk6GJQsqaUBKTNV-1" vertex="1">
          <mxGeometry x="20" y="90" width="140" height="270" as="geometry" />
        </mxCell>
        <mxCell id="cl-cgMlKk-zf_8zUZ1PS-3" value="" style="edgeStyle=orthogonalEdgeStyle;rounded=0;orthogonalLoop=1;jettySize=auto;html=1;" parent="cl-cgMlKk-zf_8zUZ1PS-0" source="WIyWlLk6GJQsqaUBKTNV-3" target="cl-cgMlKk-zf_8zUZ1PS-2" edge="1">
          <mxGeometry relative="1" as="geometry" />
        </mxCell>
        <mxCell id="WIyWlLk6GJQsqaUBKTNV-3" value="Remoção de duplicatas" style="rounded=1;whiteSpace=wrap;html=1;fontSize=12;glass=0;strokeWidth=1;shadow=0;" parent="cl-cgMlKk-zf_8zUZ1PS-0" vertex="1">
          <mxGeometry x="10" y="30" width="120" height="40" as="geometry" />
        </mxCell>
        <mxCell id="cl-cgMlKk-zf_8zUZ1PS-5" value="" style="edgeStyle=orthogonalEdgeStyle;rounded=0;orthogonalLoop=1;jettySize=auto;html=1;" parent="cl-cgMlKk-zf_8zUZ1PS-0" source="cl-cgMlKk-zf_8zUZ1PS-2" target="cl-cgMlKk-zf_8zUZ1PS-4" edge="1">
          <mxGeometry relative="1" as="geometry" />
        </mxCell>
        <mxCell id="cl-cgMlKk-zf_8zUZ1PS-2" value="Remoção de títulos muito curtos" style="rounded=1;whiteSpace=wrap;html=1;fontSize=12;glass=0;strokeWidth=1;shadow=0;" parent="cl-cgMlKk-zf_8zUZ1PS-0" vertex="1">
          <mxGeometry x="10" y="90" width="120" height="40" as="geometry" />
        </mxCell>
        <mxCell id="cl-cgMlKk-zf_8zUZ1PS-4" value="Remoção de títulos inválidos" style="rounded=1;whiteSpace=wrap;html=1;fontSize=12;glass=0;strokeWidth=1;shadow=0;" parent="cl-cgMlKk-zf_8zUZ1PS-0" vertex="1">
          <mxGeometry x="10" y="150" width="120" height="40" as="geometry" />
        </mxCell>
        <mxCell id="cl-cgMlKk-zf_8zUZ1PS-6" value="Fine tuning do modelo" style="swimlane;whiteSpace=wrap;html=1;" parent="WIyWlLk6GJQsqaUBKTNV-1" vertex="1">
          <mxGeometry x="180" y="90" width="140" height="270" as="geometry" />
        </mxCell>
        <mxCell id="cl-cgMlKk-zf_8zUZ1PS-13" style="edgeStyle=orthogonalEdgeStyle;rounded=0;orthogonalLoop=1;jettySize=auto;html=1;exitX=0.5;exitY=1;exitDx=0;exitDy=0;entryX=0.5;entryY=0;entryDx=0;entryDy=0;" parent="cl-cgMlKk-zf_8zUZ1PS-6" source="WIyWlLk6GJQsqaUBKTNV-7" target="WIyWlLk6GJQsqaUBKTNV-12" edge="1">
          <mxGeometry relative="1" as="geometry" />
        </mxCell>
        <mxCell id="WIyWlLk6GJQsqaUBKTNV-7" value="Carregamento do Tokenizador" style="rounded=1;whiteSpace=wrap;html=1;fontSize=12;glass=0;strokeWidth=1;shadow=0;" parent="cl-cgMlKk-zf_8zUZ1PS-6" vertex="1">
          <mxGeometry x="15" y="30" width="110" height="40" as="geometry" />
        </mxCell>
        <mxCell id="cl-cgMlKk-zf_8zUZ1PS-14" style="edgeStyle=orthogonalEdgeStyle;rounded=0;orthogonalLoop=1;jettySize=auto;html=1;exitX=0.5;exitY=1;exitDx=0;exitDy=0;entryX=0.5;entryY=0;entryDx=0;entryDy=0;" parent="cl-cgMlKk-zf_8zUZ1PS-6" source="WIyWlLk6GJQsqaUBKTNV-12" target="WIyWlLk6GJQsqaUBKTNV-11" edge="1">
          <mxGeometry relative="1" as="geometry" />
        </mxCell>
        <mxCell id="WIyWlLk6GJQsqaUBKTNV-12" value="Divisão dos dados em treinamento/teste" style="rounded=1;whiteSpace=wrap;html=1;fontSize=12;glass=0;strokeWidth=1;shadow=0;" parent="cl-cgMlKk-zf_8zUZ1PS-6" vertex="1">
          <mxGeometry x="10" y="90" width="120" height="40" as="geometry" />
        </mxCell>
        <mxCell id="cl-cgMlKk-zf_8zUZ1PS-15" style="edgeStyle=orthogonalEdgeStyle;rounded=0;orthogonalLoop=1;jettySize=auto;html=1;exitX=0.5;exitY=1;exitDx=0;exitDy=0;entryX=0.5;entryY=0;entryDx=0;entryDy=0;" parent="cl-cgMlKk-zf_8zUZ1PS-6" source="WIyWlLk6GJQsqaUBKTNV-11" target="V4R9LYjgo6jURclDwLZ_-0" edge="1">
          <mxGeometry relative="1" as="geometry" />
        </mxCell>
        <mxCell id="WIyWlLk6GJQsqaUBKTNV-11" value="Carregamento do modelo" style="rounded=1;whiteSpace=wrap;html=1;fontSize=12;glass=0;strokeWidth=1;shadow=0;" parent="cl-cgMlKk-zf_8zUZ1PS-6" vertex="1">
          <mxGeometry x="25" y="150" width="90" height="40" as="geometry" />
        </mxCell>
        <mxCell id="V4R9LYjgo6jURclDwLZ_-0" value="Fine tunning do modelo" style="rounded=1;whiteSpace=wrap;html=1;" parent="cl-cgMlKk-zf_8zUZ1PS-6" vertex="1">
          <mxGeometry x="10" y="210" width="120" height="40" as="geometry" />
        </mxCell>
        <mxCell id="cl-cgMlKk-zf_8zUZ1PS-12" style="edgeStyle=orthogonalEdgeStyle;rounded=0;orthogonalLoop=1;jettySize=auto;html=1;entryX=0;entryY=0.5;entryDx=0;entryDy=0;" parent="WIyWlLk6GJQsqaUBKTNV-1" source="cl-cgMlKk-zf_8zUZ1PS-4" target="WIyWlLk6GJQsqaUBKTNV-7" edge="1">
          <mxGeometry relative="1" as="geometry">
            <Array as="points">
              <mxPoint x="170" y="260" />
              <mxPoint x="170" y="140" />
            </Array>
          </mxGeometry>
        </mxCell>
        <mxCell id="cl-cgMlKk-zf_8zUZ1PS-16" value="Geração do dataset" style="swimlane;whiteSpace=wrap;html=1;" parent="WIyWlLk6GJQsqaUBKTNV-1" vertex="1">
          <mxGeometry x="344" y="90" width="140" height="270" as="geometry" />
        </mxCell>
        <mxCell id="0EHpsnOJm84ZYzou6Q-F-1" style="edgeStyle=orthogonalEdgeStyle;rounded=0;orthogonalLoop=1;jettySize=auto;html=1;exitX=0.5;exitY=1;exitDx=0;exitDy=0;entryX=0.5;entryY=0;entryDx=0;entryDy=0;" edge="1" parent="cl-cgMlKk-zf_8zUZ1PS-16" source="V4R9LYjgo6jURclDwLZ_-1" target="0EHpsnOJm84ZYzou6Q-F-0">
          <mxGeometry relative="1" as="geometry" />
        </mxCell>
        <mxCell id="V4R9LYjgo6jURclDwLZ_-1" value="Geração do dataset (inferência)" style="whiteSpace=wrap;html=1;rounded=1;" parent="cl-cgMlKk-zf_8zUZ1PS-16" vertex="1">
          <mxGeometry x="10" y="30" width="120" height="40" as="geometry" />
        </mxCell>
        <mxCell id="0EHpsnOJm84ZYzou6Q-F-0" value="Pós-processamento" style="whiteSpace=wrap;html=1;rounded=1;" vertex="1" parent="cl-cgMlKk-zf_8zUZ1PS-16">
          <mxGeometry x="10" y="90" width="120" height="40" as="geometry" />
        </mxCell>
        <mxCell id="cl-cgMlKk-zf_8zUZ1PS-24" value="Avaliação quantitativa" style="swimlane;whiteSpace=wrap;html=1;" parent="WIyWlLk6GJQsqaUBKTNV-1" vertex="1">
          <mxGeometry x="510" y="90" width="410" height="80" as="geometry" />
        </mxCell>
        <mxCell id="cl-cgMlKk-zf_8zUZ1PS-25" value="Cáculo de Perplexidade" style="whiteSpace=wrap;html=1;rounded=1;" parent="cl-cgMlKk-zf_8zUZ1PS-24" vertex="1">
          <mxGeometry x="100" y="30" width="120" height="40" as="geometry" />
        </mxCell>
        <mxCell id="cl-cgMlKk-zf_8zUZ1PS-26" style="edgeStyle=orthogonalEdgeStyle;rounded=0;orthogonalLoop=1;jettySize=auto;html=1;exitX=1;exitY=0.5;exitDx=0;exitDy=0;entryX=0;entryY=0.5;entryDx=0;entryDy=0;" parent="WIyWlLk6GJQsqaUBKTNV-1" source="V4R9LYjgo6jURclDwLZ_-0" target="V4R9LYjgo6jURclDwLZ_-1" edge="1">
          <mxGeometry relative="1" as="geometry" />
        </mxCell>
        <mxCell id="cl-cgMlKk-zf_8zUZ1PS-30" value="Avaliação qualitativa (supervisionada)" style="swimlane;whiteSpace=wrap;html=1;" parent="WIyWlLk6GJQsqaUBKTNV-1" vertex="1">
          <mxGeometry x="510" y="180" width="410" height="80" as="geometry" />
        </mxCell>
        <mxCell id="cl-cgMlKk-zf_8zUZ1PS-34" value="" style="edgeStyle=orthogonalEdgeStyle;rounded=0;orthogonalLoop=1;jettySize=auto;html=1;" parent="cl-cgMlKk-zf_8zUZ1PS-30" source="cl-cgMlKk-zf_8zUZ1PS-31" target="cl-cgMlKk-zf_8zUZ1PS-33" edge="1">
          <mxGeometry relative="1" as="geometry" />
        </mxCell>
        <mxCell id="cl-cgMlKk-zf_8zUZ1PS-31" value="Classificação automática do dataset" style="whiteSpace=wrap;html=1;rounded=1;" parent="cl-cgMlKk-zf_8zUZ1PS-30" vertex="1">
          <mxGeometry x="10" y="30" width="130" height="40" as="geometry" />
        </mxCell>
        <mxCell id="cl-cgMlKk-zf_8zUZ1PS-36" value="" style="edgeStyle=orthogonalEdgeStyle;rounded=0;orthogonalLoop=1;jettySize=auto;html=1;" parent="cl-cgMlKk-zf_8zUZ1PS-30" source="cl-cgMlKk-zf_8zUZ1PS-33" target="cl-cgMlKk-zf_8zUZ1PS-35" edge="1">
          <mxGeometry relative="1" as="geometry" />
        </mxCell>
        <mxCell id="cl-cgMlKk-zf_8zUZ1PS-33" value="Treinamento do classificador" style="whiteSpace=wrap;html=1;rounded=1;" parent="cl-cgMlKk-zf_8zUZ1PS-30" vertex="1">
          <mxGeometry x="160" y="30" width="110" height="40" as="geometry" />
        </mxCell>
        <mxCell id="cl-cgMlKk-zf_8zUZ1PS-35" value="Análise de resultados" style="whiteSpace=wrap;html=1;rounded=1;" parent="cl-cgMlKk-zf_8zUZ1PS-30" vertex="1">
          <mxGeometry x="290" y="30" width="110" height="40" as="geometry" />
        </mxCell>
        <mxCell id="cl-cgMlKk-zf_8zUZ1PS-37" value="Avaliação qualitativa (semi-supervisionada)" style="swimlane;whiteSpace=wrap;html=1;" parent="WIyWlLk6GJQsqaUBKTNV-1" vertex="1">
          <mxGeometry x="510" y="280" width="410" height="80" as="geometry" />
        </mxCell>
        <mxCell id="cl-cgMlKk-zf_8zUZ1PS-40" value="" style="edgeStyle=orthogonalEdgeStyle;rounded=0;orthogonalLoop=1;jettySize=auto;html=1;exitX=1;exitY=0.5;exitDx=0;exitDy=0;entryX=0;entryY=0.5;entryDx=0;entryDy=0;" parent="cl-cgMlKk-zf_8zUZ1PS-37" source="cl-cgMlKk-zf_8zUZ1PS-41" target="cl-cgMlKk-zf_8zUZ1PS-42" edge="1">
          <mxGeometry relative="1" as="geometry">
            <mxPoint x="269" y="50" as="sourcePoint" />
            <mxPoint x="289" y="50" as="targetPoint" />
          </mxGeometry>
        </mxCell>
        <mxCell id="cl-cgMlKk-zf_8zUZ1PS-41" value="Treinamento do classificador" style="whiteSpace=wrap;html=1;rounded=1;" parent="cl-cgMlKk-zf_8zUZ1PS-37" vertex="1">
          <mxGeometry x="80" y="30" width="110" height="40" as="geometry" />
        </mxCell>
        <mxCell id="cl-cgMlKk-zf_8zUZ1PS-42" value="Análise de resultados" style="whiteSpace=wrap;html=1;rounded=1;" parent="cl-cgMlKk-zf_8zUZ1PS-37" vertex="1">
          <mxGeometry x="230" y="30" width="110" height="40" as="geometry" />
        </mxCell>
        <mxCell id="0EHpsnOJm84ZYzou6Q-F-2" style="edgeStyle=orthogonalEdgeStyle;rounded=0;orthogonalLoop=1;jettySize=auto;html=1;exitX=1;exitY=0.25;exitDx=0;exitDy=0;entryX=0;entryY=0.25;entryDx=0;entryDy=0;" edge="1" parent="WIyWlLk6GJQsqaUBKTNV-1" source="0EHpsnOJm84ZYzou6Q-F-0" target="cl-cgMlKk-zf_8zUZ1PS-25">
          <mxGeometry relative="1" as="geometry">
            <Array as="points">
              <mxPoint x="500" y="190" />
              <mxPoint x="500" y="130" />
            </Array>
          </mxGeometry>
        </mxCell>
        <mxCell id="0EHpsnOJm84ZYzou6Q-F-3" style="edgeStyle=orthogonalEdgeStyle;rounded=0;orthogonalLoop=1;jettySize=auto;html=1;exitX=1;exitY=0.5;exitDx=0;exitDy=0;entryX=0;entryY=0.5;entryDx=0;entryDy=0;" edge="1" parent="WIyWlLk6GJQsqaUBKTNV-1" source="0EHpsnOJm84ZYzou6Q-F-0" target="cl-cgMlKk-zf_8zUZ1PS-31">
          <mxGeometry relative="1" as="geometry" />
        </mxCell>
        <mxCell id="0EHpsnOJm84ZYzou6Q-F-4" style="edgeStyle=orthogonalEdgeStyle;rounded=0;orthogonalLoop=1;jettySize=auto;html=1;exitX=1;exitY=0.75;exitDx=0;exitDy=0;entryX=0;entryY=0.5;entryDx=0;entryDy=0;" edge="1" parent="WIyWlLk6GJQsqaUBKTNV-1" source="0EHpsnOJm84ZYzou6Q-F-0" target="cl-cgMlKk-zf_8zUZ1PS-41">
          <mxGeometry relative="1" as="geometry">
            <Array as="points">
              <mxPoint x="490" y="210" />
              <mxPoint x="490" y="330" />
            </Array>
          </mxGeometry>
        </mxCell>
      </root>
    </mxGraphModel>
  </diagram>
</mxfile>
